:FULLY-SPECIFIED
:FORCE-ALL-JOINTS-BE-3DOF
:DEGREES
917
root 2.90031 16.2939 32.3606 1.55485 11.9129 362.128
lfemur -15.9636 2.58608 -0.689135
ltibia 33.9566 0 0
lfoot -7.69908 -39.4945 0
ltoes 5.57451 0 0
rfemur -16.1478 -3.70781 -7.99726
rtibia 38.9003 0 0
rfoot 11.9372 -16.2696 0
rtoes -6.05605 0 0
lowerback 0.263464 0.372201 -2.80446
upperback -0.552887 0.465481 -4.30852
thorax -0.712795 0.239564 -2.87129
lowerneck -7.11642 -5.88966 -1.71528
upperneck 4.42595 -8.08462 5.82228
head 3.02661 -3.84759 1.79065
lclavicle 3.97647e-15 1.02413e-14 0
lhumerus -51.0447 -35.4361 108.414
lradius 58.7166 0 0
lwrist 12.2111 0 0
lhand 35.5812 17.9328 0
lfingers 7.12502 0 0
lthumb 58.6084 32.8422 0
rclavicle 3.97647e-15 1.02413e-14 0
rhumerus -58.0546 32.9177 -107.275
rradius 117.426 0 0
rwrist 1.58917 0 0
rhand -5.09349 -13.0935 0
rfingers 7.12502 0 0
rthumb 20.6692 -761.695 0
918
root 2.82955 16.2617 32.402 1.82607 11.1268 362.374
lfemur -14.585 1.36775 -0.0997286
ltibia 31.4567 0 0
lfoot -7.26202 -41.0558 0
ltoes 6.61376 0 0
rfemur -16.2964 -3.39769 -8.38314
rtibia 38.2363 0 0
rfoot 11.2033 -15.4904 0
rtoes -10.2793 0 0
lowerback -0.0938988 0.350938 -2.80162
upperback -0.644563 0.453979 -4.58772
thorax -0.610321 0.232496 -3.16799
lowerneck -7.11144 -5.59723 -1.57977
upperneck 4.39599 -7.70606 5.85892
head 2.99575 -3.65666 1.79875
lclavicle 3.37242e-15 9.48554e-15 0
lhumerus -51.1933 -35.5952 108.181
lradius 58.6178 0 0
lwrist 12.6111 0 0
lhand 36.434 18.783 0
lfingers 7.12502 0 0
lthumb 59.3209 32.8192 0
rclavicle 3.37242e-15 9.48554e-15 0
rhumerus -58.5975 34.6516 -105.426
rradius 117.862 0 0
rwrist 1.2979 0 0
rhand -2.80149 -12.8651 0
rfingers 7.12502 0 0
rthumb 22.8403 -760.945 0
919
root 2.74485 16.2204 32.4498 2.15164 10.2037 362.678
lfemur -12.8911 0.014618 0.504052
ltibia 28.3604 0 0
lfoot -6.77064 -42.6951 0
ltoes 8.018 0 0
rfemur -16.599 -3.07799 -8.81602
rtibia 37.7774 0 0
rfoot 10.1797 -14.5386 0
rtoes -15.3234 0 0
lowerback -0.52168 0.296967 -2.80456
upperback -0.753448 0.402463 -4.92956
thorax -0.486528 0.205188 -3.52647
lowerneck -7.10384 -5.22396 -1.40457
upperneck 4.35808 -7.22256 5.89831
head 2.95561 -3.41304 1.80632
lclavicle 2.67805e-15 8.4952e-15 0
lhumerus -51.3903 -35.8265 107.892
lradius 58.5118 0 0
lwrist 13.1388 0 0
lhand 37.4888 19.8786 0
lfingers 7.12502 0 0
lthumb 60.1996 32.8191 0
rclavicle 2.67805e-15 8.4952e-15 0
rhumerus -59.1775 36.7029 -102.885
rradius 118.399 0 0
rwrist 0.813075 0 0
rhand 0.373925 -12.4849 0
rfingers 7.12502 0 0
rthumb 25.8498 -759.854 0
920
root 2.64938 16.1713 32.5016 2.51835 9.18128 363.027
lfemur -10.9486 -1.38558 1.07738
ltibia 24.7979 0 0
lfoot -6.28587 -44.262 0
ltoes 9.6834 0 0
rfemur -17.0704 -2.77931 -9.26953
rtibia 37.6023 0 0
rfoot 8.87648 -13.4497 0
rtoes -20.9442 0 0
lowerback -1.00002 0.207958 -2.81155
upperback -0.874128 0.306824 -5.31952
thorax -0.346945 0.15564 -3.93237
lowerneck -7.09377 -4.7804 -1.19216
upperneck 4.31141 -6.64769 5.93555
head 2.90671 -3.12369 1.81141
lclavicle 1.92456e-15 7.29205e-15 0
lhumerus -51.6361 -36.1319 107.565
lradius 58.4033 0 0
lwrist 13.7879 0 0
lhand 38.6962 21.1769 0
lfingers 7.12502 0 0
lthumb 61.2034 32.849 0
rclavicle 1.92456e-15 7.29205e-15 0
rhumerus -59.6927 38.9472 -99.6393
rradius 118.936 0 0
rwrist 0.119932 0 0
rhand 4.31395 -11.974 0
rfingers 7.12502 0 0
rthumb 29.5855 -758.474 0
921
root 2.54652 16.1159 32.5549 2.9114 8.09637 363.404
lfemur -8.84172 -2.74923 1.5886
ltibia 20.9417 0 0
lfoot -5.88482 -45.614 0
ltoes 11.4323 0 0
rfemur -17.7055 -2.52967 -9.71837
rtibia 37.736 0 0
rfoot 7.32902 -12.2661 0
rtoes -26.8584 0 0
lowerback -1.50592 0.0868448 -2.81828
upperback -1.00041 0.169715 -5.73929
thorax -0.198187 0.0852242 -4.36901
lowerneck -7.08175 -4.28218 -0.946577
upperneck 4.2546 -6.00169 5.96493
head 2.84997 -2.79897 1.81172
lclavicle 1.1401e-15 5.91431e-15 0
lhumerus -51.9299 -36.5073 107.224
lradius 58.2942 0 0
lwrist 14.5451 0 0
lhand 39.99 22.611 0
lfingers 7.12502 0 0
lthumb 62.2775 32.9129 0
rclavicle 1.1401e-15 5.91431e-15 0
rhumerus -60.014 41.2354 -95.7056
rradius 119.325 0 0
rwrist -0.777273 0 0
rhand 8.77834 -11.3863 0
rfingers 7.12502 0 0
rthumb 33.8197 -756.913 0
922
root 2.43981 16.0562 32.6072 3.31439 6.98502 363.791
lfemur -6.67203 -3.99686 2.01927
ltibia 17.0073 0 0
lfoot -5.66076 -46.6168 0
ltoes 13.0132 0 0
rfemur -18.4805 -2.35447 -10.1383
rtibia 38.1498 0 0
rfoot 5.59776 -11.0377 0
rtoes -32.743 0 0
lowerback -2.01325 -0.0581804 -2.81788
upperback -1.12535 0.000552964 -6.16677
thorax -0.0479552 -0.00131141 -4.81751
lowerneck -7.0687 -3.75008 -0.673474
upperneck 4.18565 -5.31146 5.97996
head 2.78669 -2.45261 1.80455
lclavicle 3.49768e-16 4.41672e-15 0
lhumerus -52.2696 -36.9434 106.903
lradius 58.1841 0 0
lwrist 15.3904 0 0
lhand 41.2873 24.0897 0
lfingers 7.12502 0 0
lthumb 63.3535 33.0115 0
rclavicle 3.49768e-16 4.41672e-15 0
rhumerus -59.9857 43.3937 -91.1345
rradius 119.368 0 0
rwrist -1.85529 0 0
rhand 13.4054 -10.8086 0
rfingers 7.12502 0 0
rthumb 38.2097 -755.34 0
923
root 2.33301 15.9947 32.6561 3.70937 5.88245 364.164
lfemur -4.55853 -5.05316 2.36411
ltibia 13.2526 0 0
lfoot -5.7231 -47.1437 0
ltoes 14.1009 0 0
rfemur -19.3516 -2.27654 -10.506
rtibia 38.7611 0 0
rfoot 3.76836 -9.82111 0
rtoes -38.2358 0 0
lowerback -2.49275 -0.213662 -2.8009
upperback -1.2412 -0.184485 -6.57608
thorax 0.0949658 -0.0958442 -5.25667
lowerneck -7.05591 -3.21 -0.380082
upperneck 4.10198 -4.61061 5.97333
head 2.71856 -2.10172 1.78687
lclavicle -4.24377e-16 2.87055e-15 0
lhumerus -52.6519 -37.4249 106.638
lradius 58.0696 0 0
lwrist 16.2971 0 0
lhand 42.4882 25.4978 0
lfingers 7.12502 0 0
lthumb 64.3497 33.1424 0
rclavicle -4.24377e-16 2.87055e-15 0
rhumerus -59.4248 45.2235 -86.0087
rradius 118.818 0 0
rwrist -3.07188 0 0
rhand 17.7121 -10.3607 0
rfingers 7.12502 0 0
rthumb 42.2974 -753.979 0
924
root 2.23007 15.9347 32.6991 4.07676 4.82305 364.497
lfemur -2.63763 -5.84696 2.63105
ltibia 9.97806 0 0
lfoot -6.19746 -47.0759 0
ltoes 14.2964 0 0
rfemur -20.2559 -2.31612 -10.7993
rtibia 39.4339 0 0
rfoot 1.9517 -8.6805 0
rtoes -42.9353 0 0
lowerback -2.912 -0.360885 -2.7553
upperback -1.33947 -0.362457 -6.93755
thorax 0.220705 -0.186877 -5.66307
lowerneck -7.04504 -2.69295 -0.0752254
upperneck 4.00043 -3.93937 5.93693
head 2.64769 -1.76677 1.75526
lclavicle -1.16334e-15 1.36355e-15 0
lhumerus -53.0725 -37.9309 106.478
lradius 57.9449 0 0
lwrist 17.2315 0 0
lhand 43.476 26.6958 0
lfingers 7.12502 0 0
lthumb 65.1705 33.2995 0
rclavicle -1.16334e-15 1.36355e-15 0
rhumerus -58.1212 46.5018 -80.4429
rradius 117.38 0 0
rwrist -4.36581 0 0
rhand 21.0939 -10.195 0
rfingers 7.12502 0 0
rthumb 45.5093 -753.116 0
925
root 2.13513 15.8796 32.7337 4.39544 3.84042 364.759
lfemur -1.06315 -6.31122 2.8412
ltibia 7.52681 0 0
lfoot -7.2256 -46.3024 0
ltoes 13.1266 0 0
rfemur -21.1112 -2.49084 -10.9972
rtibia 39.9781 0 0
rfoot 0.283837 -7.68699 0
rtoes -46.4005 0 0
lowerback -3.23548 -0.47587 -2.6665
upperback -1.41089 -0.503662 -7.21775
thorax 0.318308 -0.259537 -6.011
lowerneck -7.03814 -2.23507 0.230682
upperneck 3.87724 -3.34467 5.86185
head 2.57656 -1.47165 1.70594
lclavicle -1.85118e-15 0 0
lhumerus -53.5254 -38.4352 106.474
lradius 57.8015 0 0
lwrist 18.1533 0 0
lhand 44.117 27.5203 0
lfingers 7.12502 0 0
lthumb 65.7072 33.474 0
rclavicle -1.85118e-15 0 0
rhumerus -55.8381 46.9807 -74.5842
rradius 114.708 0 0
rwrist -5.65682 0 0
rhand 22.8247 -10.4969 0
rfingers 7.12502 0 0
rthumb 47.1569 -753.094 0
926
root 2.12377 15.873 32.7372 4.43085 3.72087 364.785
lfemur -0.899707 -6.32828 2.85841
ltibia 7.30914 0 0
lfoot -7.43467 -46.1058 0
ltoes 12.8005 0 0
rfemur -21.2197 -2.52888 -11.0115
rtibia 40.0397 0 0
rfoot 0.0829852 -7.57728 0
rtoes -46.7004 0 0
lowerback -3.2665 -0.487834 -2.65012
upperback -1.41679 -0.51876 -7.2448
thorax 0.327967 -0.267351 -6.04944
lowerneck -7.0379 -2.1816 0.270913
upperneck 3.8587 -3.27518 5.8472
head 2.56728 -1.43738 1.69731
lclavicle -1.93296e-15 -1.67199e-16 0
lhumerus -53.5896 -38.5023 106.493
lradius 57.7807 0 0
lwrist 18.2752 0 0
lhand 44.1582 27.5837 0
lfingers 7.12502 0 0
lthumb 65.7424 33.5003 0
rclavicle -1.93296e-15 -1.67199e-16 0
rhumerus -55.4145 46.9701 -73.7697
rradius 114.211 0 0
rwrist -5.8309 0 0
rhand 22.8693 -10.5825 0
rfingers 7.12502 0 0
rthumb 47.2005 -753.182 0
927
root 2.09293 15.8546 32.7455 4.52326 3.39246 364.85
lfemur -0.483613 -6.30616 2.87854
ltibia 6.81289 0 0
lfoot -8.13971 -45.3881 0
ltoes 11.6588 0 0
rfemur -21.5411 -2.65773 -11.0352
rtibia 40.2463 0 0
rfoot -0.482053 -7.29317 0
rtoes -47.3574 0 0
lowerback -3.34164 -0.522441 -2.59924
upperback -1.42888 -0.56329 -7.31129
thorax 0.352412 -0.290351 -6.15057
lowerneck -7.03825 -2.0336 0.387044
upperneck 3.80319 -3.0827 5.7989
head 2.54072 -1.34272 1.66986
lclavicle -2.14891e-15 -6.50404e-16 0
lhumerus -53.7821 -38.7013 106.568
lradius 57.7206 0 0
lwrist 18.6345 0 0
lhand 44.2253 27.7187 0
lfingers 7.12502 0 0
lthumb 65.8013 33.5847 0
rclavicle -2.14891e-15 -6.50404e-16 0
rhumerus -54.0366 46.8989 -71.3359
rradius 112.619 0 0
rwrist -6.35677 0 0
rhand 22.8514 -10.8505 0
rfingers 7.12502 0 0
rthumb 47.1886 -753.505 0
928
root 2.0471 15.8266 32.756 4.65429 2.8991 364.938
lfemur 0.0872401 -6.15788 2.86435
ltibia 6.23522 0 0
lfoot -9.41554 -44.0135 0
ltoes 9.53379 0 0
rfemur -22.0632 -2.89419 -11.0443
rtibia 40.6188 0 0
rfoot -1.35515 -6.89315 0
rtoes -48.0661 0 0
lowerback -3.43738 -0.577103 -2.51251
upperback -1.44027 -0.634999 -7.39793
thorax 0.38541 -0.327326 -6.29507
lowerneck -7.04035 -1.80947 0.571227
upperneck 3.71181 -2.79106 5.7127
head 2.4989 -1.19973 1.62222
lclavicle -2.4601e-15 -1.41355e-15 0
lhumerus -54.0984 -39.0248 106.722
lradius 57.625 0 0
lwrist 19.2142 0 0
lhand 44.2488 27.8555 0
lfingers 7.12502 0 0
lthumb 65.8262 33.7314 0
rclavicle -2.4601e-15 -1.41355e-15 0
rhumerus -51.6061 46.702 -67.3509
rradius 109.843 0 0
rwrist -7.22535 0 0
rhand 22.5779 -11.3159 0
rfingers 7.12502 0 0
rthumb 46.9393 -754.131 0
929
root 1.99029 15.791 32.7665 4.80865 2.28284 365.033
lfemur 0.732913 -5.82709 2.79192
ltibia 5.72261 0 0
lfoot -11.281 -41.9208 0
ltoes 6.36108 0 0
rfemur -22.7658 -3.24791 -11.0212
rtibia 41.1637 0 0
rfoot -2.4804 -6.4237 0
rtoes -48.5986 0 0
lowerback -3.53458 -0.648351 -2.39023
upperback -1.44599 -0.730172 -7.48902
thorax 0.421491 -0.376342 -6.46629
lowerneck -7.04471 -1.52739 0.81427
upperneck 3.58692 -2.42381 5.58741
head 2.44398 -1.02025 1.55436
lclavicle -2.83445e-15 -2.40929e-15 0
lhumerus -54.528 -39.4598 106.967
lradius 57.4988 0 0
lwrist 19.9878 0 0
lhand 44.18 27.942 0
lfingers 7.12502 0 0
lthumb 65.7768 33.9394 0
rclavicle -2.83445e-15 -2.40929e-15 0
rhumerus -48.1088 46.307 -61.9533
rradius 105.873 0 0
rwrist -8.40816 0 0
rhand 21.9015 -11.9912 0
rfingers 7.12502 0 0
rthumb 46.313 -755.108 0
